<?xml version="1.0" encoding="UTF-8"?>
<svg width="719px" height="128px" viewBox="0 0 719 128" version="1.1" xmlns="http://www.w3.org/2000/svg" xmlns:xlink="http://www.w3.org/1999/xlink">
    <title>Group 3</title>
    <g id="branding" stroke="none" stroke-width="1" fill="none" fill-rule="evenodd">
        <g id="Artboard" transform="translate(-276.000000, -146.000000)" fill="#F4F4F5">
            <g id="Group-3" transform="translate(276.575000, 146.424000)">
                <rect id="Rectangle" x="76.425" y="100.076" width="547" height="27" rx="2"></rect>
                <path d="M76.029,3.326 L76.029,17.614 C76.029,18.7185695 75.1335695,19.614 74.029,19.614 L24.634,19.614 C23.5294305,19.614 22.634,20.5094305 22.634,21.614 L22.634,52.719 C22.634,53.8235695 23.5294305,54.719 24.634,54.719 L62.264,54.719 C63.3685695,54.719 64.264,55.6144305 64.264,56.719 L64.264,71.552 C64.264,72.6565695 63.3685695,73.552 62.264,73.552 L24.634,73.552 C23.5294305,73.552 22.634,74.4474305 22.634,75.552 L22.634,125.576 C22.634,126.680569 21.7385695,127.576 20.634,127.576 L2,127.576 C0.8954305,127.576 5.7935996e-16,126.680569 0,125.576 L0,3.326 C-1.3527075e-16,2.2214305 0.8954305,1.326 2,1.326 L74.029,1.326 C75.1335695,1.326 76.029,2.2214305 76.029,3.326 Z" id="Path" fill-rule="nonzero"></path>
                <path d="M159.409,3.368 L159.409,83.576 C159.409,84.6805695 158.513569,85.576 157.409,85.576 L139.977,85.576 C138.872431,85.576 137.977,84.6805695 137.977,83.576 L137.977,74.936 L137.977,74.936 C135.241,78.584 131.669,81.4466667 127.261,83.524 C122.853,85.6013333 118.065,86.64 112.897,86.64 C106.310333,86.64 100.483667,85.2466667 95.417,82.46 C90.3503333,79.6733333 86.373,75.5693333 83.485,70.148 C80.597,64.7266667 79.153,58.2666667 79.153,50.768 L79.153,3.368 C79.153,2.2634305 80.0484305,1.368 81.153,1.368 L98.433,1.368 C99.5375695,1.368 100.433,2.2634305 100.433,3.368 L100.433,47.728 L100.433,47.728 C100.433,54.416 102.105,59.5586667 105.449,63.156 C108.793,66.7533333 113.353,68.552 119.129,68.552 C125.006333,68.552 129.617,66.7533333 132.961,63.156 C136.305,59.5586667 137.977,54.416 137.977,47.728 L137.977,3.368 C137.977,2.2634305 138.872431,1.368 139.977,1.368 L157.409,1.368 C158.513569,1.368 159.409,2.2634305 159.409,3.368 Z" id="Path" fill-rule="nonzero"></path>
                <path d="M213.441,43.472 C213.441,34.7573333 215.214333,27.132 218.761,20.596 C222.307667,14.06 227.222333,8.99333333 233.505,5.396 C239.787667,1.79866667 246.982333,0 255.089,0 C265.526333,0 274.165,2.60933333 281.005,7.828 C287.845,13.0466667 292.430333,20.368 294.761,29.792 L271.809,29.792 C270.593,26.144 268.541,23.2813333 265.653,21.204 C262.765,19.1266667 259.193,18.088 254.937,18.088 C248.857,18.088 244.043667,20.292 240.497,24.7 C236.950333,29.108 235.177,35.3653333 235.177,43.472 C235.177,51.4773333 236.950333,57.684 240.497,62.092 C244.043667,66.5 248.857,68.704 254.937,68.704 C263.550333,68.704 269.174333,64.8533333 271.809,57.152 L294.761,57.152 C292.430333,66.272 287.819667,73.5173333 280.929,78.888 C274.038333,84.2586667 265.425,86.944 255.089,86.944 C246.982333,86.944 239.787667,85.1453333 233.505,81.548 C227.222333,77.9506667 222.307667,72.884 218.761,66.348 C215.214333,59.812 213.441,52.1866667 213.441,43.472 Z" id="Path" fill-rule="nonzero"></path>
                <path d="M318.689,20.848 L318.689,59.584 L318.689,59.584 C318.689,62.4213333 319.373,64.4733333 320.741,65.74 C322.109,67.0066667 324.414333,67.64 327.657,67.64 L335.537,67.64 C336.641569,67.64 337.537,68.5354305 337.537,69.64 L337.537,83.576 C337.537,84.6805695 336.641569,85.576 335.537,85.576 L324.161,85.576 L324.161,85.576 C306.225,85.576 297.257,76.8613333 297.257,59.432 L297.257,20.848 C297.257,19.7434305 296.361569,18.848 295.257,18.848 L289.225,18.848 C288.120431,18.848 287.225,17.9525695 287.225,16.848 L287.225,3.368 C287.225,2.2634305 288.120431,1.368 289.225,1.368 L297.257,1.368 L318.689,1.368 L335.537,1.368 C336.641569,1.368 337.537,2.2634305 337.537,3.368 L337.537,16.848 C337.537,17.9525695 336.641569,18.848 335.537,18.848 L320.689,18.848 C319.584431,18.848 318.689,19.7434305 318.689,20.848 Z" id="Path" fill-rule="nonzero"></path>
                <path d="M362.193,3.368 L362.193,83.576 C362.193,84.6805695 361.297569,85.576 360.193,85.576 L342.913,85.576 C341.808431,85.576 340.913,84.6805695 340.913,83.576 L340.913,3.368 C340.913,2.2634305 341.808431,1.368 342.913,1.368 L360.193,1.368 C361.297569,1.368 362.193,2.2634305 362.193,3.368 Z" id="Shape" fill-rule="nonzero"></path>
                <path d="M402.305,86.944 C394.198333,86.944 386.902333,85.1453333 380.417,81.548 C373.931667,77.9506667 368.839667,72.8586667 365.141,66.272 C361.442333,59.6853333 359.593,52.0853333 359.593,43.472 C359.593,34.8586667 361.493,27.2586667 365.293,20.672 C369.093,14.0853333 374.286333,8.99333333 380.873,5.396 C387.459667,1.79866667 394.806333,0 402.913,0 C411.019667,0 418.366333,1.79866667 424.953,5.396 C431.539667,8.99333333 436.733,14.0853333 440.533,20.672 C444.333,27.2586667 446.233,34.8586667 446.233,43.472 C446.233,52.0853333 444.282333,59.6853333 440.381,66.272 C436.479667,72.8586667 431.210333,77.9506667 424.573,81.548 C417.935667,85.1453333 410.513,86.944 402.305,86.944 Z M402.305,68.4 C406.155667,68.4 409.778333,67.4626667 413.173,65.588 C416.567667,63.7133333 419.278333,60.9013333 421.305,57.152 C423.331667,53.4026667 424.345,48.8426667 424.345,43.472 C424.345,35.4666667 422.242333,29.3106667 418.037,25.004 C413.831667,20.6973333 408.689,18.544 402.609,18.544 C396.529,18.544 391.437,20.6973333 387.333,25.004 C383.229,29.3106667 381.177,35.4666667 381.177,43.472 C381.177,51.4773333 383.178333,57.6333333 387.181,61.94 C391.183667,66.2466667 396.225,68.4 402.305,68.4 Z" id="Shape" fill-rule="nonzero"></path>
                <path d="M489.577,0.152 C499.609,0.152 507.715667,3.31866667 513.897,9.652 C520.078333,15.9853333 523.169,24.8266667 523.169,36.176 L523.169,83.576 C523.169,84.6805695 522.273569,85.576 521.169,85.576 L503.889,85.576 C502.784431,85.576 501.889,84.6805695 501.889,83.576 L501.889,39.064 L501.889,39.064 C501.889,32.376 500.217,27.2333333 496.873,23.636 C493.529,20.0386667 488.969,18.24 483.193,18.24 C477.315667,18.24 472.679667,20.0386667 469.285,23.636 C465.890333,27.2333333 464.193,32.376 464.193,39.064 L464.193,83.576 C464.193,84.6805695 463.297569,85.576 462.193,85.576 L444.913,85.576 C443.808431,85.576 442.913,84.6805695 442.913,83.576 L442.913,3.368 C442.913,2.2634305 443.808431,1.368 444.913,1.368 L462.193,1.368 C463.297569,1.368 464.193,2.2634305 464.193,3.368 L464.193,11.856 L464.193,11.856 C467.030333,8.208 470.653,5.34533333 475.061,3.268 C479.469,1.19066667 484.307667,0.152 489.577,0.152 Z" id="Path" fill-rule="nonzero"></path>
                <path d="M521.441,43.168 C521.441,34.656 523.138333,27.1066667 526.533,20.52 C529.927667,13.9333333 534.538333,8.86666667 540.365,5.32 C546.191667,1.77333333 552.702333,0 559.897,0 C566.179667,0 571.677,1.26666667 576.389,3.8 C581.101,6.33333333 584.875667,9.52533333 587.713,13.376 L587.713,3.368 C587.713,2.2634305 588.608431,1.368 589.713,1.368 L607.145,1.368 C608.249569,1.368 609.145,2.2634305 609.145,3.368 L609.145,83.576 C609.145,84.6805695 608.249569,85.576 607.145,85.576 L589.713,85.576 C588.608431,85.576 587.713,84.6805695 587.713,83.576 L587.713,73.264 L587.713,73.264 C584.977,77.216 581.202333,80.484 576.389,83.068 C571.575667,85.652 566.027667,86.944 559.745,86.944 C552.651667,86.944 546.191667,85.12 540.365,81.472 C534.538333,77.824 529.927667,72.6813333 526.533,66.044 C523.138333,59.4066667 521.441,51.7813333 521.441,43.168 Z M587.713,43.472 C587.713,38.304 586.699667,33.8706667 584.673,30.172 C582.646333,26.4733333 579.910333,23.636 576.465,21.66 C573.019667,19.684 569.321,18.696 565.369,18.696 C561.417,18.696 557.769,19.6586667 554.425,21.584 C551.081,23.5093333 548.370333,26.3213333 546.293,30.02 C544.215667,33.7186667 543.177,38.1013333 543.177,43.168 C543.177,48.2346667 544.215667,52.668 546.293,56.468 C548.370333,60.268 551.106333,63.1813333 554.501,65.208 C557.895667,67.2346667 561.518333,68.248 565.369,68.248 C569.321,68.248 573.019667,67.26 576.465,65.284 C579.910333,63.308 582.646333,60.4706667 584.673,56.772 C586.699667,53.0733333 587.713,48.64 587.713,43.472 Z" id="Shape" fill-rule="nonzero"></path>
                <path d="M609.193,14.44 C611.929,9.98133333 615.501,6.48533333 619.909,3.952 C624.317,1.41866667 629.358333,0.152 635.033,0.152 L635.033,20.496 C635.033,21.6005695 634.137569,22.496 633.033,22.496 L629.409,22.496 L629.409,22.496 C622.721,22.496 617.679667,24.0666667 614.285,27.208 C610.890333,30.3493333 609.193,35.8213333 609.193,43.624 L609.193,83.576 C609.193,84.6805695 608.297569,85.576 607.193,85.576 L589.913,85.576 C588.808431,85.576 587.913,84.6805695 587.913,83.576 L587.913,3.368 C587.913,2.2634305 588.808431,1.368 589.913,1.368 L607.193,1.368 C608.297569,1.368 609.193,2.2634305 609.193,3.368 L609.193,14.44 L609.193,14.44 Z" id="Path" fill-rule="nonzero"></path>
                <path d="M716.306187,3.14316665 L664.713884,125.851167 C664.401856,126.593299 663.675275,127.076 662.870214,127.076 L645.174238,127.076 C644.069669,127.076 643.174238,126.180569 643.174238,125.076 C643.174238,124.809761 643.227395,124.546202 643.330593,124.300777 L660.60667,83.2145687 C660.812995,82.7238853 660.815203,82.1711965 660.612806,81.6788801 L628.319858,3.12846575 C627.899865,2.10685961 628.387568,0.938212074 629.409174,0.518218435 C629.65044,0.419031125 629.90878,0.368 630.16964,0.368 L649.655848,0.368 C650.493068,0.368 651.241688,0.889470526 651.531872,1.67479244 L670.921994,54.1501579 C671.304842,55.186257 672.455126,55.7158216 673.491225,55.3329736 C674.036387,55.1315313 674.466959,54.702909 674.670874,54.1586669 L694.338563,1.66628349 C694.631142,0.885399086 695.377524,0.368 696.21142,0.368 L714.462518,0.368 C715.567088,0.368 716.462518,1.2634305 716.462518,2.368 C716.462518,2.63421819 716.409369,2.89775749 716.306187,3.14316665 Z" id="Path" fill-rule="nonzero"></path>
                <path d="M184.577,0.152 C194.609,0.152 202.715667,3.31866667 208.897,9.652 C215.078333,15.9853333 218.169,24.8266667 218.169,36.176 L218.169,83.576 C218.169,84.6805695 217.273569,85.576 216.169,85.576 L198.889,85.576 C197.784431,85.576 196.889,84.6805695 196.889,83.576 L196.889,39.064 L196.889,39.064 C196.889,32.376 195.217,27.2333333 191.873,23.636 C188.529,20.0386667 183.969,18.24 178.193,18.24 C172.315667,18.24 167.679667,20.0386667 164.285,23.636 C160.890333,27.2333333 159.193,32.376 159.193,39.064 L159.193,83.576 C159.193,84.6805695 158.297569,85.576 157.193,85.576 L139.913,85.576 C138.808431,85.576 137.913,84.6805695 137.913,83.576 L137.913,3.368 C137.913,2.2634305 138.808431,1.368 139.913,1.368 L157.193,1.368 C158.297569,1.368 159.193,2.2634305 159.193,3.368 L159.193,11.856 L159.193,11.856 C162.030333,8.208 165.653,5.34533333 170.061,3.268 C174.469,1.19066667 179.307667,0.152 184.577,0.152 Z" id="Path" fill-rule="nonzero"></path>
            </g>
        </g>
    </g>
</svg>